# xmcd
#
# Track frame offsets: 
#        150
#        25047
#        44900
#        71782
#        97120
#        124640
#        157180
#        187282
#        214180
#        242137
#        261612
#        292810
#        315745
#
# Disc length: 4279 seconds
#
# Revision: 1
# Processed by: cddbd v1.5.2PL0 Copyright (c) Steve Scherf et al.
# Submitted via: ExactAudioCopy v1.0b3
#
DISCID=d310b50d
DTITLE=Leonard Cohen - More Best Of
DYEAR=1997
DGENRE=Blues
TTITLE0=Everybody Knows
TTITLE1=I'm Your Man
TTITLE2=Take This Waltz
TTITLE3=Tower Of Song
TTITLE4=Anthem
TTITLE5=Democracy
TTITLE6=The Future
TTITLE7=Closing Time
TTITLE8=Dance Me To The End Of Love
TTITLE9=Suzanne
TTITLE10=Hallelujah
TTITLE11=Never Any Good
TTITLE12=The Great Event
EXTD=
EXTT0=
EXTT1=
EXTT2=
EXTT3=
EXTT4=
EXTT5=
EXTT6=
EXTT7=
EXTT8=
EXTT9=
EXTT10=
EXTT11=
EXTT12=
PLAYORDER=
